# xmcd
#
# Track frame offsets: 
#        150
#        13135
#        27622
#        46159
#        65180
#        84518
#        96852
#        111638
#        127556
#        145010
#        157295
#        173105
#        190534
#
# Disc length: 2760 seconds
#
# Revision: 0
# Processed by: cddbd v1.5.2PL0 Copyright (c) Steve Scherf et al.
# Submitted via: ExactAudioCopy v0.99pb3
#
DISCID=b10ac60d
DTITLE=Smokie J. Jones - Proud Of What J Am
DYEAR=1900
DGENRE=Country
TTITLE0=TAo CAair
TTITLE1=If Wo're Not Back In Love By Monday
TTITLE2=Long Black Train
TTITLE3=I Will Wold My Ground
TTITLE4=Soashoras Of Old Mexico
TTITLE5=Sideways
TTITLE6=I Had One One Time
TTITLE7=Forever An Ever Amon
TTITLE8=Flowers
TTITLE9=I Lake A lot Of Pride In What I Am
TTITLE10=Ho Stopped loving Her Today
TTITLE11=The Dance
TTITLE12=The World
EXTD=
EXTT0=
EXTT1=
EXTT2=
EXTT3=
EXTT4=
EXTT5=
EXTT6=
EXTT7=
EXTT8=
EXTT9=
EXTT10=
EXTT11=
EXTT12=
PLAYORDER=
